<svg width="29" height="29" viewBox="0 0 29 29" fill="none" xmlns="http://www.w3.org/2000/svg">
<path d="M8.51876 0.195801C3.97021 0.195801 0.271729 3.89428 0.271729 8.44284V19.8618C0.271729 24.4104 3.97021 28.1088 8.51876 28.1088H19.9377C24.4863 28.1088 28.1848 24.4104 28.1848 19.8618V8.44284C28.1848 3.89428 24.4863 0.195801 19.9377 0.195801H8.51876ZM21.8409 5.2709C22.5387 5.2709 23.1097 5.84185 23.1097 6.53967C23.1097 7.2375 22.5387 7.80845 21.8409 7.80845C21.1431 7.80845 20.5721 7.2375 20.5721 6.53967C20.5721 5.84185 21.1431 5.2709 21.8409 5.2709ZM14.2283 7.17406C18.079 7.17406 21.2065 10.3016 21.2065 14.1523C21.2065 18.0031 18.079 21.1306 14.2283 21.1306C10.3775 21.1306 7.24999 18.0031 7.24999 14.1523C7.24999 10.3016 10.3775 7.17406 14.2283 7.17406ZM14.2283 8.44284C11.0817 8.44284 8.51876 11.0058 8.51876 14.1523C8.51876 17.2989 11.0817 19.8618 14.2283 19.8618C17.3748 19.8618 19.9377 17.2989 19.9377 14.1523C19.9377 11.0058 17.3748 8.44284 14.2283 8.44284Z" fill="white"/>
</svg>
