<svg width="28" height="28" viewBox="0 0 28 28" fill="none" xmlns="http://www.w3.org/2000/svg">
<g clip-path="url(#clip0_104_14)">
<path d="M22.0954 0H5.81458C2.60377 0 0 2.60377 0 5.81458V22.0954C0 25.3062 2.60377 27.91 5.81458 27.91H22.0954C25.3074 27.91 27.91 25.3062 27.91 22.0954V5.81458C27.91 2.60377 25.3074 0 22.0954 0ZM9.30333 22.0954H5.81458V9.30333H9.30333V22.0954ZM7.55896 7.82875C6.43558 7.82875 5.52385 6.91005 5.52385 5.77737C5.52385 4.64469 6.43558 3.72599 7.55896 3.72599C8.68234 3.72599 9.59406 4.64469 9.59406 5.77737C9.59406 6.91005 8.6835 7.82875 7.55896 7.82875ZM23.2583 22.0954H19.7696V15.5784C19.7696 11.6617 15.1179 11.9583 15.1179 15.5784V22.0954H11.6292V9.30333H15.1179V11.3559C16.7413 8.34858 23.2583 8.12646 23.2583 14.2353V22.0954Z" fill="white"/>
</g>
<defs>
<clipPath id="clip0_104_14">
<rect width="27.91" height="27.91" fill="white"/>
</clipPath>
</defs>
</svg>
