<svg width="192" height="168" viewBox="0 0 192 168" fill="none" xmlns="http://www.w3.org/2000/svg">
<path d="M69.6981 125.997H70.9441L74.1222 133.905L77.2938 125.997H78.5464L74.602 135.698H73.6292L69.6981 125.997ZM69.2917 125.997H70.391L70.5709 131.913V135.698H69.2917V125.997ZM77.8468 125.997H78.9462V135.698H77.6669V131.913L77.8468 125.997ZM87.6409 134.652V135.698H82.5039V134.652H87.6409ZM82.7637 125.997V135.698H81.4778V125.997H82.7637ZM86.9613 130.168V131.214H82.5039V130.168H86.9613ZM87.5743 125.997V127.049H82.5039V125.997H87.5743ZM95.0564 125.997H96.3357V132.56C96.3357 133.288 96.1736 133.894 95.8493 134.379C95.525 134.863 95.0942 135.227 94.5567 135.471C94.0237 135.711 93.444 135.831 92.8177 135.831C92.1603 135.831 91.5651 135.711 91.032 135.471C90.5035 135.227 90.0837 134.863 89.7728 134.379C89.4663 133.894 89.313 133.288 89.313 132.56V125.997H90.5856V132.56C90.5856 133.066 90.6789 133.483 90.8655 133.812C91.052 134.141 91.3119 134.385 91.645 134.545C91.9826 134.705 92.3735 134.785 92.8177 134.785C93.2663 134.785 93.6572 134.705 93.9904 134.545C94.3279 134.385 94.59 134.141 94.7766 133.812C94.9631 133.483 95.0564 133.066 95.0564 132.56V125.997ZM105.876 126.856L102.665 135.698H101.352L105.05 125.997H105.896L105.876 126.856ZM108.568 135.698L105.35 126.856L105.33 125.997H106.176L109.887 135.698H108.568ZM108.402 132.106V133.159H102.951V132.106H108.402ZM115.038 131.893H112.446V130.847H115.038C115.539 130.847 115.946 130.767 116.257 130.607C116.568 130.447 116.794 130.225 116.936 129.941C117.083 129.657 117.156 129.333 117.156 128.968C117.156 128.635 117.083 128.322 116.936 128.029C116.794 127.736 116.568 127.5 116.257 127.323C115.946 127.14 115.539 127.049 115.038 127.049H112.746V135.698H111.46V125.997H115.038C115.77 125.997 116.39 126.123 116.896 126.376C117.403 126.63 117.787 126.981 118.049 127.429C118.311 127.873 118.442 128.382 118.442 128.955C118.442 129.577 118.311 130.108 118.049 130.547C117.787 130.987 117.403 131.322 116.896 131.553C116.39 131.78 115.77 131.893 115.038 131.893ZM126.504 134.652V135.698H121.367V134.652H126.504ZM121.627 125.997V135.698H120.341V125.997H121.627ZM125.824 130.168V131.214H121.367V130.168H125.824ZM126.437 125.997V127.049H121.367V125.997H126.437ZM123.712 123.318L125.365 125.137V125.204H124.339L123.339 124.078L122.346 125.204H121.334V125.13L122.966 123.318H123.712ZM72.1301 151.698H69.8314L69.8447 151.205H72.1301C72.8274 151.205 73.4404 151.043 73.969 150.718C74.502 150.394 74.9196 149.945 75.2216 149.372C75.5237 148.795 75.6747 148.131 75.6747 147.38V146.294C75.6747 145.734 75.5881 145.221 75.4148 144.755C75.2416 144.289 74.9973 143.887 74.6819 143.549C74.371 143.211 74.0001 142.952 73.5692 142.77C73.1384 142.583 72.6675 142.49 72.1567 142.49H69.7914V141.997H72.1567C72.7386 141.997 73.2761 142.101 73.7691 142.31C74.2666 142.514 74.6975 142.807 75.0617 143.189C75.4259 143.567 75.708 144.022 75.9079 144.555C76.1122 145.084 76.2144 145.67 76.2144 146.314V147.38C76.2144 148.024 76.1122 148.613 75.9079 149.146C75.708 149.674 75.4237 150.13 75.055 150.512C74.6908 150.889 74.2599 151.182 73.7625 151.391C73.2694 151.596 72.7253 151.698 72.1301 151.698ZM69.9979 141.997V151.698H69.4582V141.997H69.9979ZM85.6554 146.201V147.493C85.6554 148.142 85.5688 148.733 85.3955 149.266C85.2267 149.799 84.9802 150.256 84.656 150.638C84.3317 151.02 83.943 151.316 83.49 151.525C83.0369 151.729 82.5261 151.831 81.9575 151.831C81.4023 151.831 80.8959 151.729 80.4384 151.525C79.9809 151.316 79.5877 151.02 79.259 150.638C78.9348 150.256 78.6838 149.799 78.5061 149.266C78.3329 148.733 78.2463 148.142 78.2463 147.493V146.201C78.2463 145.548 78.3329 144.957 78.5061 144.429C78.6838 143.896 78.9348 143.438 79.259 143.056C79.5833 142.674 79.972 142.381 80.425 142.177C80.8826 141.968 81.3889 141.863 81.9442 141.863C82.5127 141.863 83.0236 141.968 83.4766 142.177C83.9297 142.381 84.3184 142.674 84.6426 143.056C84.9713 143.438 85.2223 143.896 85.3955 144.429C85.5688 144.957 85.6554 145.548 85.6554 146.201ZM85.1224 147.493V146.188C85.1224 145.619 85.0513 145.102 84.9091 144.635C84.767 144.164 84.5582 143.76 84.2828 143.422C84.0119 143.085 83.681 142.825 83.2901 142.643C82.8992 142.456 82.4506 142.363 81.9442 142.363C81.4511 142.363 81.0092 142.456 80.6183 142.643C80.2274 142.825 79.8965 143.085 79.6255 143.422C79.3545 143.76 79.148 144.164 79.0059 144.635C78.8637 145.102 78.7926 145.619 78.7926 146.188V147.493C78.7926 148.066 78.8637 148.588 79.0059 149.059C79.1524 149.53 79.3612 149.934 79.6322 150.272C79.9031 150.609 80.234 150.872 80.6249 151.058C81.0203 151.24 81.4644 151.331 81.9575 151.331C82.4639 151.331 82.9125 151.24 83.3034 151.058C83.6943 150.872 84.0252 150.609 84.2962 150.272C84.5671 149.934 84.7714 149.53 84.9091 149.059C85.0513 148.588 85.1224 148.066 85.1224 147.493ZM91.8313 141.997H92.3977L96.2355 150.925L100.073 141.997H100.64L96.442 151.698H96.0223L91.8313 141.997ZM91.6648 141.997H92.1711L92.2044 147.187V151.698H91.6648V141.997ZM100.313 141.997H100.82V151.698H100.28V147.187L100.313 141.997ZM109.634 151.205V151.698H103.977V151.205H109.634ZM104.217 141.997V151.698H103.678V141.997H104.217ZM108.955 146.454V146.954H103.977V146.454H108.955ZM109.621 141.997V142.49H103.977V141.997H109.621ZM117.769 141.997H118.309V148.573C118.309 149.297 118.16 149.901 117.863 150.385C117.569 150.869 117.167 151.231 116.657 151.471C116.15 151.711 115.584 151.831 114.958 151.831C114.322 151.831 113.752 151.711 113.245 151.471C112.739 151.231 112.337 150.869 112.039 150.385C111.746 149.901 111.599 149.297 111.599 148.573V141.997H112.139V148.573C112.139 149.173 112.261 149.679 112.506 150.092C112.75 150.501 113.085 150.812 113.512 151.025C113.938 151.234 114.42 151.338 114.958 151.338C115.495 151.338 115.975 151.234 116.397 151.025C116.823 150.812 117.159 150.501 117.403 150.092C117.647 149.679 117.769 149.173 117.769 148.573V141.997ZM129.022 148.773V141.997H129.562V148.773C129.562 149.43 129.438 149.988 129.189 150.445C128.94 150.903 128.6 151.249 128.169 151.485C127.743 151.716 127.259 151.831 126.717 151.831C126.14 151.831 125.638 151.729 125.211 151.525C124.785 151.32 124.454 151.011 124.218 150.598C123.983 150.181 123.865 149.657 123.865 149.026H124.405C124.405 149.528 124.492 149.952 124.665 150.299C124.842 150.641 125.102 150.9 125.444 151.078C125.791 151.251 126.215 151.338 126.717 151.338C127.139 151.338 127.523 151.242 127.87 151.051C128.221 150.856 128.5 150.57 128.709 150.192C128.918 149.81 129.022 149.337 129.022 148.773ZM138.064 151.205V151.698H132.407V151.205H138.064ZM132.647 141.997V151.698H132.107V141.997H132.647ZM137.384 146.454V146.954H132.407V146.454H137.384ZM138.051 141.997V142.49H132.407V141.997H138.051ZM140.649 141.997V151.698H140.109V141.997H140.649ZM146.312 141.997V151.698H145.779V141.997H146.312ZM149.764 141.997V142.49H142.328V141.997H149.764ZM158.212 146.201V147.493C158.212 148.142 158.126 148.733 157.952 149.266C157.784 149.799 157.537 150.256 157.213 150.638C156.889 151.02 156.5 151.316 156.047 151.525C155.594 151.729 155.083 151.831 154.514 151.831C153.959 151.831 153.453 151.729 152.995 151.525C152.538 151.316 152.145 151.02 151.816 150.638C151.492 150.256 151.241 149.799 151.063 149.266C150.89 148.733 150.803 148.142 150.803 147.493V146.201C150.803 145.548 150.89 144.957 151.063 144.429C151.241 143.896 151.492 143.438 151.816 143.056C152.14 142.674 152.529 142.381 152.982 142.177C153.439 141.968 153.946 141.863 154.501 141.863C155.07 141.863 155.58 141.968 156.034 142.177C156.487 142.381 156.875 142.674 157.2 143.056C157.528 143.438 157.779 143.896 157.952 144.429C158.126 144.957 158.212 145.548 158.212 146.201ZM157.679 147.493V146.188C157.679 145.619 157.608 145.102 157.466 144.635C157.324 144.164 157.115 143.76 156.84 143.422C156.569 143.085 156.238 142.825 155.847 142.643C155.456 142.456 155.007 142.363 154.501 142.363C154.008 142.363 153.566 142.456 153.175 142.643C152.784 142.825 152.453 143.085 152.182 143.422C151.911 143.76 151.705 144.164 151.563 144.635C151.421 145.102 151.35 145.619 151.35 146.188V147.493C151.35 148.066 151.421 148.588 151.563 149.059C151.709 149.53 151.918 149.934 152.189 150.272C152.46 150.609 152.791 150.872 153.182 151.058C153.577 151.24 154.021 151.331 154.514 151.331C155.021 151.331 155.469 151.24 155.86 151.058C156.251 150.872 156.582 150.609 156.853 150.272C157.124 149.934 157.328 149.53 157.466 149.059C157.608 148.588 157.679 148.066 157.679 147.493Z" fill="white"/>
<line x1="3.28507" y1="95.6673" x2="137.362" y2="2.54763" stroke="white" stroke-width="0.852846"/>
<line x1="56.3783" y1="162.973" x2="56.3783" y2="1.52588e-05" stroke="white" stroke-width="0.852846"/>
<line x1="162.973" y1="112.899" x2="1.52588e-05" y2="112.899" stroke="white" stroke-width="0.852846"/>
<path d="M33.394 75.2654L108.212 23.2179V75.2654H33.394Z" stroke="white" stroke-width="1.70569"/>
<line x1="81.7988" y1="75.2653" x2="128.434" y2="75.2653" stroke="white" stroke-width="1.70569"/>
<line x1="108.231" y1="112.571" x2="108.212" y2="67.0299" stroke="white" stroke-width="1.70569"/>
<line x1="56.7985" y1="112.188" x2="109.071" y2="112.188" stroke="white" stroke-width="1.70569"/>
<line x1="55.9518" y1="112.472" x2="55.9518" y2="43.1707" stroke="white" stroke-width="1.70569"/>
</svg>
