<svg width="179" height="156" viewBox="0 0 190 173" fill="none" xmlns="http://www.w3.org/2000/svg">
<g filter="url(#filter0_d_24_55)">
<path d="M75.0061 123.39H76.1682L79.1325 130.766L82.0905 123.39H83.2588L79.5799 132.438H78.6726L75.0061 123.39ZM74.6271 123.39H75.6524L75.8202 128.908V132.438H74.6271V123.39ZM82.6063 123.39H83.6316V132.438H82.4385V128.908L82.6063 123.39ZM91.7411 131.462V132.438H86.9498V131.462H91.7411ZM87.1922 123.39V132.438H85.9928V123.39H87.1922ZM91.1072 127.28V128.256H86.9498V127.28H91.1072ZM91.6789 123.39V124.372H86.9498V123.39H91.6789ZM98.6574 123.39H99.8505V129.511C99.8505 130.191 99.6993 130.756 99.3969 131.208C99.0944 131.659 98.6926 131.999 98.1913 132.227C97.6941 132.451 97.1535 132.562 96.5694 132.562C95.9562 132.562 95.4011 132.451 94.9039 132.227C94.4109 131.999 94.0194 131.659 93.7294 131.208C93.4435 130.756 93.3006 130.191 93.3006 129.511V123.39H94.4876V129.511C94.4876 129.983 94.5746 130.373 94.7486 130.679C94.9226 130.986 95.1649 131.214 95.4756 131.363C95.7905 131.512 96.1551 131.587 96.5694 131.587C96.9878 131.587 97.3524 131.512 97.6631 131.363C97.9779 131.214 98.2224 130.986 98.3964 130.679C98.5704 130.373 98.6574 129.983 98.6574 129.511V123.39ZM108.749 124.192L105.754 132.438H104.529L107.978 123.39H108.768L108.749 124.192ZM111.26 132.438L108.258 124.192L108.239 123.39H109.029L112.49 132.438H111.26ZM111.104 129.089V130.07H106.021V129.089H111.104ZM117.293 128.89H114.876V127.914H117.293C117.762 127.914 118.141 127.84 118.431 127.69C118.721 127.541 118.932 127.334 119.064 127.069C119.201 126.804 119.27 126.501 119.27 126.162C119.27 125.851 119.201 125.559 119.064 125.285C118.932 125.012 118.721 124.792 118.431 124.627C118.141 124.457 117.762 124.372 117.293 124.372H115.156V132.438H113.956V123.39H117.293C117.977 123.39 118.555 123.508 119.027 123.744C119.499 123.98 119.858 124.308 120.102 124.726C120.347 125.14 120.469 125.615 120.469 126.149C120.469 126.729 120.347 127.224 120.102 127.634C119.858 128.045 119.499 128.357 119.027 128.573C118.555 128.784 117.977 128.89 117.293 128.89ZM127.988 131.462V132.438H123.197V131.462H127.988ZM123.439 123.39V132.438H122.24V123.39H123.439ZM127.354 127.28V128.256H123.197V127.28H127.354ZM127.926 123.39V124.372H123.197V123.39H127.926ZM125.384 120.892L126.925 122.588V122.651H125.968L125.036 121.6L124.11 122.651H123.166V122.582L124.688 120.892H125.384ZM77.2744 147.438H75.1304L75.1429 146.978H77.2744C77.9248 146.978 78.4965 146.827 78.9895 146.525C79.4867 146.222 79.8761 145.804 80.1578 145.269C80.4395 144.731 80.5804 144.111 80.5804 143.411V142.398C80.5804 141.876 80.4996 141.398 80.338 140.963C80.1765 140.528 79.9486 140.153 79.6545 139.838C79.3645 139.523 79.0185 139.281 78.6167 139.111C78.2148 138.937 77.7757 138.85 77.2992 138.85H75.0931V138.39H77.2992C77.8419 138.39 78.3432 138.487 78.8031 138.682C79.2671 138.873 79.669 139.146 80.0087 139.502C80.3484 139.855 80.6115 140.279 80.7979 140.776C80.9885 141.269 81.0837 141.816 81.0837 142.417V143.411C81.0837 144.012 80.9885 144.561 80.7979 145.058C80.6115 145.551 80.3463 145.976 80.0025 146.332C79.6627 146.684 79.2609 146.958 78.7969 147.152C78.337 147.343 77.8295 147.438 77.2744 147.438ZM75.2858 138.39V147.438H74.7824V138.39H75.2858ZM89.8892 142.311V143.517C89.8892 144.122 89.8084 144.673 89.6468 145.17C89.4894 145.667 89.2595 146.094 88.9571 146.45C88.6546 146.806 88.2921 147.082 87.8695 147.277C87.447 147.467 86.9705 147.562 86.4403 147.562C85.9224 147.562 85.4501 147.467 85.0234 147.277C84.5967 147.082 84.23 146.806 83.9234 146.45C83.621 146.094 83.3869 145.667 83.2212 145.17C83.0597 144.673 82.9789 144.122 82.9789 143.517V142.311C82.9789 141.702 83.0597 141.151 83.2212 140.658C83.3869 140.161 83.621 139.734 83.9234 139.378C84.2259 139.022 84.5884 138.748 85.011 138.558C85.4377 138.363 85.91 138.266 86.4278 138.266C86.9581 138.266 87.4345 138.363 87.8571 138.558C88.2797 138.748 88.6422 139.022 88.9446 139.378C89.2512 139.734 89.4853 140.161 89.6468 140.658C89.8084 141.151 89.8892 141.702 89.8892 142.311ZM89.3921 143.517V142.299C89.3921 141.769 89.3258 141.286 89.1932 140.851C89.0606 140.412 88.8659 140.035 88.6091 139.72C88.3563 139.405 88.0477 139.163 87.6831 138.993C87.3185 138.819 86.9001 138.732 86.4278 138.732C85.968 138.732 85.5557 138.819 85.1912 138.993C84.8266 139.163 84.518 139.405 84.2652 139.72C84.0125 140.035 83.8199 140.412 83.6873 140.851C83.5547 141.286 83.4884 141.769 83.4884 142.299V143.517C83.4884 144.051 83.5547 144.538 83.6873 144.977C83.824 145.416 84.0187 145.793 84.2715 146.108C84.5242 146.423 84.8328 146.668 85.1974 146.842C85.5661 147.011 85.9804 147.096 86.4403 147.096C86.9125 147.096 87.331 147.011 87.6955 146.842C88.0601 146.668 88.3688 146.423 88.6215 146.108C88.8742 145.793 89.0648 145.416 89.1932 144.977C89.3258 144.538 89.3921 144.051 89.3921 143.517ZM95.6494 138.39H96.1776L99.7571 146.717L103.337 138.39H103.865L99.9497 147.438H99.5582L95.6494 138.39ZM95.494 138.39H95.9663L95.9974 143.231V147.438H95.494V138.39ZM103.56 138.39H104.033V147.438H103.529V143.231L103.56 138.39ZM112.254 146.978V147.438H106.978V146.978H112.254ZM107.202 138.39V147.438H106.698V138.39H107.202ZM111.62 142.547V143.014H106.978V142.547H111.62ZM112.241 138.39V138.85H106.978V138.39H112.241ZM119.841 138.39H120.345V144.524C120.345 145.199 120.206 145.762 119.928 146.214C119.655 146.665 119.28 147.003 118.803 147.227C118.331 147.451 117.803 147.562 117.219 147.562C116.626 147.562 116.094 147.451 115.622 147.227C115.149 147.003 114.775 146.665 114.497 146.214C114.224 145.762 114.087 145.199 114.087 144.524V138.39H114.59V144.524C114.59 145.083 114.704 145.555 114.932 145.94C115.16 146.322 115.473 146.612 115.87 146.81C116.268 147.005 116.718 147.103 117.219 147.103C117.72 147.103 118.168 147.005 118.561 146.81C118.959 146.612 119.272 146.322 119.499 145.94C119.727 145.555 119.841 145.083 119.841 144.524V138.39ZM130.337 144.71V138.39H130.84V144.71C130.84 145.323 130.724 145.843 130.492 146.27C130.26 146.697 129.943 147.02 129.541 147.239C129.144 147.455 128.692 147.562 128.187 147.562C127.648 147.562 127.18 147.467 126.782 147.277C126.384 147.086 126.076 146.798 125.856 146.413C125.637 146.023 125.527 145.534 125.527 144.946H126.03C126.03 145.414 126.111 145.81 126.273 146.133C126.438 146.452 126.681 146.694 127 146.86C127.323 147.022 127.718 147.103 128.187 147.103C128.58 147.103 128.939 147.013 129.262 146.835C129.589 146.653 129.85 146.386 130.045 146.034C130.239 145.677 130.337 145.236 130.337 144.71ZM138.77 146.978V147.438H133.494V146.978H138.77ZM133.717 138.39V147.438H133.214V138.39H133.717ZM138.136 142.547V143.014H133.494V142.547H138.136ZM138.757 138.39V138.85H133.494V138.39H138.757ZM141.181 138.39V147.438H140.677V138.39H141.181ZM146.463 138.39V147.438H145.966V138.39H146.463ZM149.682 138.39V138.85H142.747V138.39H149.682ZM157.562 142.311V143.517C157.562 144.122 157.481 144.673 157.319 145.17C157.162 145.667 156.932 146.094 156.63 146.45C156.327 146.806 155.965 147.082 155.542 147.277C155.119 147.467 154.643 147.562 154.113 147.562C153.595 147.562 153.123 147.467 152.696 147.277C152.269 147.082 151.903 146.806 151.596 146.45C151.294 146.094 151.059 145.667 150.894 145.17C150.732 144.673 150.651 144.122 150.651 143.517V142.311C150.651 141.702 150.732 141.151 150.894 140.658C151.059 140.161 151.294 139.734 151.596 139.378C151.898 139.022 152.261 138.748 152.683 138.558C153.11 138.363 153.582 138.266 154.1 138.266C154.631 138.266 155.107 138.363 155.53 138.558C155.952 138.748 156.315 139.022 156.617 139.378C156.924 139.734 157.158 140.161 157.319 140.658C157.481 141.151 157.562 141.702 157.562 142.311ZM157.065 143.517V142.299C157.065 141.769 156.998 141.286 156.866 140.851C156.733 140.412 156.538 140.035 156.282 139.72C156.029 139.405 155.72 139.163 155.356 138.993C154.991 138.819 154.573 138.732 154.1 138.732C153.64 138.732 153.228 138.819 152.864 138.993C152.499 139.163 152.19 139.405 151.938 139.72C151.685 140.035 151.492 140.412 151.36 140.851C151.227 141.286 151.161 141.769 151.161 142.299V143.517C151.161 144.051 151.227 144.538 151.36 144.977C151.497 145.416 151.691 145.793 151.944 146.108C152.197 146.423 152.505 146.668 152.87 146.842C153.239 147.011 153.653 147.096 154.113 147.096C154.585 147.096 155.003 147.011 155.368 146.842C155.733 146.668 156.041 146.423 156.294 146.108C156.547 145.793 156.737 145.416 156.866 144.977C156.998 144.538 157.065 144.051 157.065 143.517Z" fill="white"/>
<line x1="15.0679" y1="94.6833" x2="139.043" y2="6.7353" stroke="white" stroke-width="0.795434"/>
<line x1="62.5829" y1="158.002" x2="62.5829" y2="6.00012" stroke="white" stroke-width="0.795434"/>
<line x1="162.002" y1="111.299" x2="10" y2="111.299" stroke="white" stroke-width="0.795434"/>
<path d="M41.1459 76.1988L110.928 27.655V76.1988H41.1459Z" stroke="white" stroke-width="1.59087"/>
<line x1="86.2923" y1="76.1988" x2="129.788" y2="76.1988" stroke="white" stroke-width="1.59087"/>
<line x1="110.928" y1="112.013" x2="110.928" y2="68.5176" stroke="white" stroke-width="1.59087"/>
<line x1="62.9749" y1="110.636" x2="111.729" y2="110.636" stroke="white" stroke-width="1.59087"/>
<line x1="62.1852" y1="110.901" x2="62.1852" y2="46.2649" stroke="white" stroke-width="1.59087"/>
</g>
<defs>
<filter id="filter0_d_24_55" x="0" y="0" width="172.002" height="172.002" filterUnits="userSpaceOnUse" color-interpolation-filters="sRGB">
<feFlood flood-opacity="0" result="BackgroundImageFix"/>
<feColorMatrix in="SourceAlpha" type="matrix" values="0 0 0 0 0 0 0 0 0 0 0 0 0 0 0 0 0 0 127 0" result="hardAlpha"/>
<feOffset dy="4"/>
<feGaussianBlur stdDeviation="5"/>
<feComposite in2="hardAlpha" operator="out"/>
<feColorMatrix type="matrix" values="0 0 0 0 0 0 0 0 0 0 0 0 0 0 0 0 0 0 0.25 0"/>
<feBlend mode="normal" in2="BackgroundImageFix" result="effect1_dropShadow_24_55"/>
<feBlend mode="normal" in="SourceGraphic" in2="effect1_dropShadow_24_55" result="shape"/>
</filter>
</defs>
</svg>
