<svg width="43" height="44" viewBox="0 0 43 44" fill="none" xmlns="http://www.w3.org/2000/svg">
<g clip-path="url(#clip0_354_1180)">
<path d="M42.9999 21.4507C42.9999 32.9372 33.6158 42.2489 22.0374 42.2489C18.3632 42.2489 14.9117 41.3091 11.9071 39.6634L0.302246 43.3488L4.08513 32.1867C2.17767 29.0541 1.07915 25.3756 1.07915 21.4493C1.08054 9.96283 10.4619 0.651123 22.0402 0.651123C33.6172 0.653908 42.9999 9.96422 42.9999 21.4507ZM22.0361 3.96758C12.3192 3.96758 4.4151 11.8118 4.4151 21.4549C4.4151 25.2809 5.6626 28.8229 7.77194 31.705L5.5721 38.1973L12.3415 36.0462C15.1261 37.8729 18.4578 38.9366 22.0361 38.9366C31.7529 38.9366 39.6598 31.0938 39.6598 21.4507C39.6626 11.8118 31.7543 3.96758 22.0361 3.96758ZM32.6231 26.2416C32.4922 26.0314 32.1497 25.9033 31.6374 25.6471C31.1264 25.3909 28.5966 24.1587 28.1274 23.9916C27.654 23.8204 27.3115 23.7341 26.969 24.245C26.6306 24.756 25.6449 25.9033 25.3428 26.2458C25.0434 26.5869 24.7441 26.6301 24.2303 26.378C23.7166 26.1191 22.0597 25.5844 20.0966 23.8482C18.5692 22.4949 17.5375 20.8283 17.2396 20.3174C16.9375 19.8078 17.209 19.5321 17.4637 19.2787C17.6935 19.049 17.9775 18.6828 18.2351 18.3835C18.4927 18.0869 18.5776 17.8767 18.7488 17.5355C18.9173 17.1944 18.8324 16.8979 18.7057 16.6403C18.5776 16.3841 17.5515 13.878 17.1212 12.8574C16.6938 11.8383 16.2664 12.0067 15.9656 12.0067C15.6663 12.0067 15.3238 11.965 14.9813 11.965C14.6388 11.965 14.0818 12.0889 13.6126 12.5998C13.1434 13.1108 11.8152 14.343 11.8152 16.8519C11.8152 19.3636 13.6544 21.7849 13.912 22.1246C14.1709 22.4629 17.4679 27.7801 22.6904 29.8212C27.9157 31.8609 27.9157 31.1801 28.8569 31.0938C29.8009 31.0074 31.8977 29.8616 32.3238 28.6726C32.7526 27.478 32.7526 26.4546 32.6231 26.2416Z" fill="white"/>
</g>
<defs>
<clipPath id="clip0_354_1180">
<rect width="42.6977" height="42.6977" fill="white" transform="translate(0.302246 0.651123)"/>
</clipPath>
</defs>
</svg>
